<?xml version="1.0" standalone="no"?>
<!DOCTYPE svg PUBLIC "-//W3C//DTD SVG 20010904//EN"
 "http://www.w3.org/TR/2001/REC-SVG-20010904/DTD/svg10.dtd">
<svg version="1.0" xmlns="http://www.w3.org/2000/svg"
 width="106.000000pt" height="105.000000pt" viewBox="0 0 106.000000 105.000000"
 preserveAspectRatio="xMidYMid meet">

<g transform="translate(0.000000,105.000000) scale(0.100000,-0.100000)"
fill="#000000" stroke="none">
<path d="M0 885 l0 -165 255 0 255 0 0 165 0 165 -255 0 -255 0 0 -165z m480
5 l0 -140 -225 0 -225 0 0 140 0 140 225 0 225 0 0 -140z"/>
<path d="M552 713 l3 -338 253 -3 252 -2 0 340 0 340 -255 0 -255 0 2 -337z
m478 2 l0 -315 -225 0 -225 0 0 315 0 315 225 0 225 0 0 -315z"/>
<path d="M0 340 l0 -340 255 0 255 0 0 340 0 340 -255 0 -255 0 0 -340z"/>
<path d="M550 165 l0 -165 255 0 255 0 0 165 0 165 -255 0 -255 0 0 -165z
m480 -5 l0 -140 -225 0 -225 0 0 140 0 140 225 0 225 0 0 -140z"/>
</g>
</svg>
